<?xml version="1.0" encoding="utf-8"?>
<!-- Generator: Adobe Illustrator 26.0.1, SVG Export Plug-In . SVG Version: 6.00 Build 0)  -->
<svg version="1.1" id="Layer_1" focusable="false" xmlns="http://www.w3.org/2000/svg" xmlns:xlink="http://www.w3.org/1999/xlink"
	 x="0px" y="0px" viewBox="0 0 512 512" style="enable-background:new 0 0 512 512;" xml:space="preserve">
<style type="text/css">
	.st0{fill:#FFEF0F;}
</style>
<path class="st0" d="M256,57.4c64.3,0,72,0.2,97.4,1.4c65.3,3,95.8,34,98.8,98.8c1.2,25.4,1.4,33,1.4,97.4c0,64.4-0.2,72-1.4,97.4
	c-3,64.8-33.4,95.8-98.8,98.8c-25.4,1.2-33,1.4-97.4,1.4c-64.3,0-72-0.2-97.4-1.4c-65.5-3-95.8-34.1-98.8-98.8
	c-1.2-25.4-1.4-33-1.4-97.4c0-64.3,0.3-72,1.4-97.4c3-64.8,33.4-95.8,98.8-98.8C184,57.7,191.7,57.4,256,57.4z M256,14
	c-65.5,0-73.6,0.3-99.4,1.4C69.1,19.5,20.5,68,16.5,155.6C15.3,181.4,15,189.5,15,255s0.3,73.7,1.4,99.4
	c4,87.5,52.6,136.2,140.2,140.2c25.7,1.2,33.9,1.4,99.4,1.4s73.7-0.3,99.4-1.4c87.4-4,136.2-52.6,140.2-140.2
	c1.2-25.7,1.5-33.9,1.5-99.4s-0.3-73.6-1.4-99.4C491.6,68.2,443,19.5,355.4,15.5C329.7,14.3,321.5,14,256,14z M256,131.2
	c-68.3,0-123.8,55.4-123.8,123.8S187.7,378.8,256,378.8S379.8,323.4,379.8,255C379.8,186.7,324.3,131.2,256,131.2z M256,335.3
	c-44.4,0-80.3-35.9-80.3-80.3c0-44.4,36-80.3,80.3-80.3s80.3,36,80.3,80.3C336.3,299.4,300.4,335.3,256,335.3z M384.7,97.4
	c-16,0-28.9,13-28.9,28.9s13,28.9,28.9,28.9c16,0,28.9-13,28.9-28.9S400.6,97.4,384.7,97.4z"/>
</svg>
